<?xml version="1.0" standalone="no"?><!DOCTYPE svg PUBLIC "-//W3C//DTD SVG 1.1//EN" "http://www.w3.org/Graphics/SVG/1.1/DTD/svg11.dtd"><svg t="1676303344736" class="icon" viewBox="0 0 1024 1024" version="1.1" xmlns="http://www.w3.org/2000/svg" p-id="1901" xmlns:xlink="http://www.w3.org/1999/xlink" width="200" height="200"><path d="M613.888 715.264h-41.984C448.512 715.264 348.16 614.912 348.16 491.52s99.84-223.232 223.232-223.232h41.984c123.392 0 223.232 99.84 223.232 223.232 0.512 123.392-99.328 223.744-222.72 223.744z" fill="#CAD3FF" opacity=".2" p-id="1902"></path><path d="M549.376 135.68c0-7.68-3.584-15.36-9.728-19.968a25.3952 25.3952 0 0 0-35.84 4.608L198.656 512l305.152 375.296c8.704 10.752 25.088 12.8 35.84 3.584 10.752-8.704 12.8-25.088 3.584-35.84L264.192 510.976l280.064-359.936c3.584-4.096 5.12-9.728 5.12-15.36z" fill="#4E63DD" p-id="1903"></path><path d="M825.856 135.68c0-7.68-3.584-15.36-9.728-19.968a25.3952 25.3952 0 0 0-35.84 4.608L475.136 512l305.152 375.296c8.704 10.752 25.088 12.8 35.84 3.584 10.752-8.704 12.8-25.088 3.584-35.84l-279.552-343.552 280.064-359.936c4.096-4.608 5.632-10.24 5.632-15.872z" fill="#4E63DD" opacity=".5" p-id="1904"></path></svg>